<?xml version="1.0" encoding="UTF-8" standalone="no"?>
<!-- Created with Inkscape (http://www.inkscape.org/) -->

<svg
   xmlns:dc="http://purl.org/dc/elements/1.1/"
   xmlns:cc="http://creativecommons.org/ns#"
   xmlns:rdf="http://www.w3.org/1999/02/22-rdf-syntax-ns#"
   xmlns:svg="http://www.w3.org/2000/svg"
   xmlns="http://www.w3.org/2000/svg"
   xmlns:sodipodi="http://sodipodi.sourceforge.net/DTD/sodipodi-0.dtd"
   xmlns:inkscape="http://www.inkscape.org/namespaces/inkscape"
   version="1.1"
   id="svg2"
   xml:space="preserve"
   width="1208.6702"
   height="1084.6"
   viewBox="0 0 1208.6702 1084.6"
   sodipodi:docname="RE17_logo.svg"
   inkscape:export-filename="/home/pat/Downloads/RE17_logo.pdf.png"
   inkscape:export-xdpi="15.72"
   inkscape:export-ydpi="15.72"
   inkscape:version="0.92.2 (unknown)"><metadata
     id="metadata8"><rdf:RDF><cc:Work
         rdf:about=""><dc:format>image/svg+xml</dc:format><dc:type
           rdf:resource="http://purl.org/dc/dcmitype/StillImage" /><dc:title></dc:title></cc:Work></rdf:RDF></metadata><defs
     id="defs6"><clipPath
       clipPathUnits="userSpaceOnUse"
       id="clipPath20"><path
         d="M 0,882.608 H 977.76 V 0 H 0 Z"
         id="path18"
         inkscape:connector-curvature="0" /></clipPath></defs><sodipodi:namedview
     pagecolor="#ffffff"
     bordercolor="#666666"
     borderopacity="1"
     objecttolerance="10"
     gridtolerance="10"
     guidetolerance="10"
     inkscape:pageopacity="0"
     inkscape:pageshadow="2"
     inkscape:window-width="3070"
     inkscape:window-height="1752"
     id="namedview4"
     showgrid="false"
     inkscape:zoom="0.87828298"
     inkscape:cx="497.01963"
     inkscape:cy="866.0256"
     inkscape:window-x="130"
     inkscape:window-y="48"
     inkscape:window-maximized="1"
     inkscape:current-layer="g10"
     fit-margin-top="0"
     fit-margin-left="0"
     fit-margin-right="0"
     fit-margin-bottom="0" /><g
     id="g10"
     inkscape:groupmode="layer"
     inkscape:label="RE17_logo"
     transform="matrix(1.3333333,0,0,-1.3333333,-47.919614,1129.606)"><g
       id="g14"
       inkscape:export-xdpi="96"
       inkscape:export-ydpi="96"><g
         id="g16"
         clip-path="url(#clipPath20)"><g
           id="g22"
           transform="translate(913.75,411.8715)"><path
             d="m 0,0 c -17.034,-30.14 -56.283,-58.108 -113.505,-80.882 -14.196,-5.651 -29.265,-10.849 -44.996,-15.643 -3.102,-0.945 -6.236,-1.868 -9.393,-2.779 -5.662,18.937 -12.251,38.283 -19.71,57.899 h -0.059 c -5.27,0 -10.203,1.891 -13.892,5.326 -1.211,1.128 -2.256,2.39 -3.129,3.754 -0.047,-0.044 -0.094,-0.091 -0.142,-0.134 -2.519,-2.331 -5.361,-4.264 -8.514,-5.796 9.008,-22.766 16.83,-45.183 23.375,-67.019 -3.163,-0.803 -6.301,-1.622 -9.51,-2.392 -29.004,-6.963 -59.881,-12.569 -92.081,-16.766 -4.224,-0.549 -8.486,-1.057 -12.756,-1.558 13.561,20.709 26.714,42.207 39.28,64.44 4.082,7.224 8.062,14.46 11.949,21.704 -3.531,1.273 -6.729,2.982 -9.582,5.124 -3.678,-4.269 -9.055,-6.683 -15.027,-6.683 h -2.281 c -1.64,-2.965 -3.297,-5.93 -4.971,-8.892 -15.516,-27.454 -31.909,-53.779 -48.885,-78.757 -4.168,-0.37 -8.369,-0.691 -12.571,-1.014 -25.061,-1.93 -50.668,-3.081 -76.671,-3.32 -26.003,-0.239 -51.627,0.442 -76.72,1.909 -4.207,0.247 -8.413,0.491 -12.587,0.784 -17.433,24.662 -34.306,50.68 -50.324,77.845 -2.761,4.681 -5.48,9.369 -8.158,14.06 -1.654,0.701 -3.229,1.499 -4.727,2.396 -3.973,-3.253 -9.095,-5.011 -14.786,-5.011 h -5.278 c 4.308,-7.699 8.724,-15.389 13.248,-23.062 12.971,-21.999 26.518,-43.251 40.456,-63.708 -4.278,0.423 -8.548,0.852 -12.782,1.324 -32.271,3.604 -63.247,8.642 -92.375,15.072 -3.222,0.711 -6.375,1.471 -9.551,2.216 6.207,22.186 13.704,44.981 22.411,68.158 h -4.631 c -3.133,0 -6.094,0.532 -8.786,1.553 -2.672,-1.007 -5.63,-1.553 -8.794,-1.553 h -2.156 c -7.758,-21.239 -14.519,-42.16 -20.222,-62.594 -3.173,0.853 -6.324,1.718 -9.442,2.605 -15.817,4.503 -30.978,9.424 -45.276,14.813 -78.843,29.715 -124.277,70.248 -124.655,111.207 -0.369,40.949 44.305,82.317 122.59,113.475 14.197,5.65 29.264,10.849 44.995,15.642 3.102,0.944 6.237,1.867 9.393,2.778 5.663,-18.937 12.252,-38.284 19.712,-57.899 h 4.607 c 7.661,0 14.116,-3.195 18.224,-8.44 1.066,1.314 2.272,2.496 3.601,3.531 -9.303,23.37 -17.358,46.38 -24.072,68.778 3.163,0.803 6.301,1.622 9.51,2.392 29.005,6.964 59.882,12.571 92.081,16.766 4.224,0.551 8.486,1.059 12.756,1.559 -13.56,-20.708 -26.713,-42.206 -39.279,-64.439 -4.398,-7.782 -8.68,-15.58 -12.85,-23.384 4.763,-2.781 8.357,-7.217 10.142,-12.773 2.377,3.61 5.137,6.327 7.698,8.326 2.541,1.984 5.363,3.637 8.45,4.96 2.129,3.875 4.285,7.748 6.472,11.618 15.516,27.454 31.908,53.778 48.885,78.756 4.168,0.37 8.369,0.691 12.571,1.015 25.061,1.929 50.669,3.08 76.672,3.319 26.002,0.239 51.627,-0.442 76.719,-1.91 4.207,-0.246 8.413,-0.491 12.587,-0.784 17.432,-24.662 34.306,-50.681 50.324,-77.846 3.691,-6.259 7.309,-12.53 10.852,-18.806 1.208,-0.859 2.358,-1.79 3.446,-2.797 0.934,-0.864 1.901,-1.863 2.859,-3.002 1.294,1.699 2.633,3.123 3.911,4.301 3.575,3.29 7.808,5.78 12.663,7.462 -4.553,8.166 -9.231,16.323 -14.03,24.46 -12.971,21.998 -26.517,43.251 -40.456,63.708 4.278,-0.423 8.548,-0.851 12.782,-1.325 32.272,-3.603 63.246,-8.641 92.374,-15.07 3.222,-0.711 6.375,-1.472 9.551,-2.217 -6.395,-22.86 -14.16,-46.367 -23.208,-70.272 4.098,-1.661 7.722,-3.94 10.849,-6.832 0.047,-0.044 0.094,-0.09 0.141,-0.134 0.873,1.365 1.919,2.626 3.131,3.755 2.997,2.79 6.817,4.562 10.971,5.128 7.788,21.306 14.574,42.295 20.295,62.792 3.173,-0.853 6.324,-1.718 9.442,-2.606 15.818,-4.503 30.979,-9.424 45.277,-14.813 C -36.726,114.084 8.709,73.552 9.086,32.595 9.185,21.81 6.128,10.843 0,0 m -182.473,-319.547 c -5.985,-10.589 -13.602,-18.662 -22.643,-23.993 -9.376,-5.528 -20.426,-8.248 -32.849,-8.248 -33.511,0 -77.042,19.777 -124.878,57.55 -45.433,35.877 -91.517,85.058 -134.625,142.995 4.217,-0.235 8.437,-0.459 12.682,-0.647 20.356,-0.898 41.011,-1.294 61.894,-1.101 20.884,0.191 41.529,0.967 61.865,2.239 4.241,0.266 8.456,0.568 12.668,0.88 -21.675,-30.278 -44.172,-58.268 -67.036,-83.272 5.395,-5.544 10.798,-10.935 16.211,-16.147 27.671,30.194 54.789,64.568 80.579,102.014 4.312,0.437 8.593,0.909 12.866,1.395 39.217,4.466 76.742,10.944 111.646,19.358 3.205,0.772 6.338,1.596 9.499,2.401 5.335,-19.778 9.629,-39.04 12.674,-57.533 9.803,-59.535 6.055,-108.505 -10.553,-137.891 m -484.176,696.309 c 5.986,10.592 13.605,18.664 22.646,23.995 9.376,5.529 20.425,8.248 32.848,8.249 33.512,0.002 77.043,-19.779 124.879,-57.552 45.433,-35.876 91.516,-85.057 134.624,-142.994 -4.217,0.234 -8.437,0.459 -12.683,0.646 -20.355,0.899 -41.01,1.295 -61.893,1.103 -20.884,-0.191 -41.528,-0.966 -61.864,-2.239 -4.241,-0.265 -8.457,-0.568 -12.669,-0.879 21.676,30.277 44.172,58.266 67.035,83.27 -5.394,5.545 -10.797,10.936 -16.211,16.147 -27.67,-30.193 -54.789,-64.567 -80.578,-102.012 -4.312,-0.437 -8.593,-0.909 -12.865,-1.395 -39.217,-4.465 -76.744,-10.943 -111.649,-19.358 -3.205,-0.772 -6.338,-1.597 -9.499,-2.402 -5.335,19.779 -9.629,39.039 -12.673,57.533 -9.804,59.532 -6.056,108.502 10.552,137.888 m 557.996,-214.619 c -14.9,5.615 -30.69,10.741 -47.168,15.419 -3.118,0.886 -6.279,1.743 -9.45,2.594 5.168,20.64 9.265,40.736 12.077,60.023 13.69,93.884 -3.195,159.393 -47.545,184.458 -12.665,7.158 -27.003,10.696 -42.732,10.696 -39.345,0 -87.401,-22.137 -139.816,-65.114 -12.348,-10.123 -24.717,-21.265 -37.041,-33.229 5.418,-5.223 10.827,-10.595 16.222,-16.127 11.759,11.398 23.553,22.023 35.32,31.671 47.854,39.237 91.623,59.848 125.34,59.85 11.802,10e-4 22.369,-2.524 31.454,-7.658 35.039,-19.803 48.221,-78.575 36.166,-161.246 -2.705,-18.546 -6.645,-37.883 -11.615,-57.755 -3.175,0.746 -6.323,1.512 -9.541,2.226 -35.053,7.771 -72.692,13.559 -111.985,17.302 -4.279,0.408 -8.569,0.801 -12.888,1.159 -47.539,66.379 -99.227,122.703 -150.248,162.992 -52.318,41.314 -100.055,62.552 -139.04,62.552 -16.499,0 -31.428,-3.803 -44.477,-11.498 -12.703,-7.491 -23.186,-18.442 -31.158,-32.548 -19.322,-34.188 -23.814,-87.009 -12.991,-152.752 3.166,-19.233 7.631,-39.25 13.177,-59.791 -3.155,-0.909 -6.298,-1.825 -9.4,-2.767 -16.389,-4.981 -32.081,-10.396 -46.874,-16.284 -61.561,-24.504 -104.21,-55.352 -123.341,-89.208 -7.831,-13.862 -11.733,-28.218 -11.6,-42.664 0.463,-50.218 49.238,-96.163 137.344,-129.371 14.898,-5.614 30.687,-10.74 47.164,-15.418 3.119,-0.885 6.278,-1.743 9.449,-2.594 -5.167,-20.64 -9.263,-40.736 -12.076,-60.024 -13.69,-93.884 3.195,-159.392 47.545,-184.458 12.666,-7.158 27.004,-10.696 42.732,-10.696 39.345,0 87.401,22.137 139.817,65.114 12.347,10.124 24.716,21.266 37.04,33.231 -5.417,5.222 -10.827,10.594 -16.221,16.126 -11.761,-11.398 -23.555,-22.023 -35.321,-31.67 -47.855,-39.238 -91.624,-59.851 -125.341,-59.851 -11.802,0 -22.368,2.523 -31.453,7.657 -35.039,19.804 -48.222,78.576 -36.166,161.247 2.704,18.546 6.644,37.883 11.614,57.755 3.176,-0.746 6.323,-1.513 9.542,-2.226 35.054,-7.772 72.692,-13.559 111.985,-17.303 4.28,-0.407 8.57,-0.8 12.889,-1.158 47.538,-66.38 99.228,-122.704 150.248,-162.993 52.32,-41.314 100.056,-62.55 139.04,-62.55 16.498,0 31.429,3.802 44.477,11.498 12.702,7.488 23.185,18.437 31.156,32.542 l -1.422,0.803 v 0.002 l 1.423,-0.802 0.003,0.004 c 19.32,34.192 23.812,87.012 12.986,152.751 -3.166,19.233 -7.631,39.251 -13.177,59.793 3.155,0.909 6.299,1.824 9.4,2.766 16.39,4.981 32.082,10.396 46.875,16.283 87.484,34.82 135.408,81.654 134.944,131.872 -0.46,50.219 -49.238,96.163 -137.342,129.369"
             style="fill:#ffffff;fill-opacity:1;fill-rule:nonzero;stroke:none"
             id="path24"
             inkscape:connector-curvature="0" /></g><g
           id="g26"
           transform="translate(184.5449,454.5756)"><path
             d="m 0,0 c 0,-7.579 -3.94,-9.7 -9.7,-9.7 h -9.246 V 23.493 H -9.7 c 5.76,0 9.7,-2.122 9.7,-9.7 z m -18.946,-24.857 h 8.943 L 1.819,-62.144 c 1.061,-3.486 3.334,-5.002 6.821,-5.002 h 5.304 c 4.396,0 6.367,2.88 5.002,6.973 L 6.063,-22.129 c 7.275,3.183 11.519,9.549 11.519,19.704 v 18.946 c 0,16.066 -10.61,22.432 -26.676,22.432 h -21.371 c -3.941,0 -6.063,-2.121 -6.063,-6.062 v -93.973 c 0,-3.941 2.122,-6.064 6.063,-6.064 h 5.456 c 3.941,0 6.063,2.123 6.063,6.064 z"
             style="fill:#ffffff;fill-opacity:1;fill-rule:nonzero;stroke:none"
             id="path28"
             inkscape:connector-curvature="0" /></g><g
           id="g30"
           transform="translate(216.3721,487.4662)"><path
             d="m 0,0 v -93.973 c 0,-3.941 2.122,-6.063 6.062,-6.063 h 34.862 c 3.94,0 6.062,2.122 6.062,6.063 v 3.334 c 0,3.942 -2.122,6.064 -6.062,6.064 H 17.582 v 30.616 h 18.189 c 3.94,0 6.062,2.122 6.062,6.063 v 3.334 c 0,3.941 -2.122,6.063 -6.062,6.063 H 17.582 v 29.102 h 22.887 c 3.941,0 6.063,2.122 6.063,6.063 V 0 c 0,3.941 -2.122,6.062 -6.063,6.062 H 6.062 C 2.122,6.062 0,3.941 0,0"
             style="fill:#ffffff;fill-opacity:1;fill-rule:nonzero;stroke:none"
             id="path32"
             inkscape:connector-curvature="0" /></g><g
           id="g34"
           transform="translate(291.2446,425.6254)"><path
             d="M 0,0 7.427,47.139 14.854,0 Z m -4.396,62.447 -17.43,-94.125 c -0.758,-4.243 1.364,-6.517 5.456,-6.517 h 4.699 c 3.638,0 5.912,1.819 6.518,5.608 l 2.88,18.037 h 19.4 l 2.88,-18.037 c 0.606,-3.789 2.88,-5.608 6.518,-5.608 h 5.608 c 4.092,0 6.214,2.274 5.456,6.517 L 19.855,62.447 c -0.605,3.637 -3.031,5.456 -6.668,5.456 H 2.273 c -3.637,0 -6.062,-1.819 -6.669,-5.456"
             style="fill:#ffffff;fill-opacity:1;fill-rule:nonzero;stroke:none"
             id="path36"
             inkscape:connector-curvature="0" /></g><g
           id="g38"
           transform="translate(391.4321,472.3095)"><path
             d="m 0,0 c 0,15.763 -10.61,22.432 -26.676,22.432 h -0.303 C -43.046,22.432 -53.656,15.763 -53.656,0 v -63.66 c 0,-16.52 10.61,-22.431 26.677,-22.431 h 0.303 C -10.61,-86.091 0,-80.029 0,-63.66 v 15.915 c 0,3.942 -2.122,6.063 -6.063,6.063 h -5.457 c -3.94,0 -6.062,-2.121 -6.062,-6.063 v -13.186 c 0,-7.427 -3.638,-9.7 -9.246,-9.7 -5.608,0 -9.246,2.273 -9.246,9.7 v 58.202 c 0,7.427 3.638,9.701 9.246,9.701 5.608,0 9.246,-2.274 9.246,-9.701 v -10.609 c 0,-3.941 2.122,-6.063 6.062,-6.063 h 5.457 c 3.941,0 6.063,2.122 6.063,6.063 z"
             style="fill:#ffffff;fill-opacity:1;fill-rule:nonzero;stroke:none"
             id="path40"
             inkscape:connector-curvature="0" /></g><g
           id="g42"
           transform="translate(433.4141,478.0688)"><path
             d="m 0,0 h 11.671 c 3.94,0 6.062,2.122 6.062,6.063 v 3.334 c 0,3.941 -2.122,6.063 -6.062,6.063 h -40.924 c -3.941,0 -6.063,-2.122 -6.063,-6.063 V 6.063 C -35.316,2.122 -33.194,0 -29.253,0 h 11.671 v -84.575 c 0,-3.942 2.122,-6.064 6.062,-6.064 h 5.457 c 3.941,0 6.063,2.122 6.063,6.064 z"
             style="fill:#ffffff;fill-opacity:1;fill-rule:nonzero;stroke:none"
             id="path44"
             inkscape:connector-curvature="0" /></g><g
           id="g46"
           transform="translate(501.0127,395.0092)"><path
             d="m 0,0 h -30.768 v 42.439 h 25.615 c 1.97,0 3.183,1.212 3.183,3.183 v 1.212 c 0,1.971 -1.213,3.184 -3.183,3.184 h -25.615 v 40.923 h 30.314 c 1.97,0 3.183,1.213 3.183,3.183 v 1.364 c 0,1.97 -1.213,3.032 -3.183,3.032 H -35.77 c -1.97,0 -3.183,-1.062 -3.183,-3.032 V -4.547 c 0,-1.971 1.213,-3.032 3.183,-3.032 H 0 c 1.971,0 3.184,1.061 3.184,3.032 v 1.363 C 3.184,-1.213 1.971,0 0,0"
             style="fill:#ffffff;fill-opacity:1;fill-rule:nonzero;stroke:none"
             id="path48"
             inkscape:connector-curvature="0" /></g><g
           id="g50"
           transform="translate(564.0645,493.5287)"><path
             d="m 0,0 h -1.971 c -1.97,0 -3.031,-1.061 -3.031,-3.031 V -82.15 c 0,-12.58 -4.093,-17.582 -16.066,-17.582 -11.975,0 -16.067,5.002 -16.067,17.582 v 79.119 c 0,1.97 -1.061,3.031 -3.031,3.031 h -1.971 c -1.97,0 -3.182,-1.061 -3.182,-3.031 v -81.848 c 0,-15.309 7.881,-22.432 23.947,-22.432 h 0.606 c 16.067,0 23.949,7.276 23.949,22.432 V -3.031 C 3.183,-1.061 1.97,0 0,0"
             style="fill:#ffffff;fill-opacity:1;fill-rule:nonzero;stroke:none"
             id="path52"
             inkscape:connector-curvature="0" /></g><g
           id="g54"
           transform="translate(611.3525,440.6313)"><path
             d="M 0,0 H -16.218 V 45.319 H 0 c 11.974,0 16.673,-5.002 16.673,-17.582 V 17.582 C 16.673,5.153 11.974,0 0,0 m 22.28,-53.201 h 2.426 c 2.273,0 3.183,1.515 2.425,3.638 L 10.307,-6.214 c 9.7,2.576 14.55,9.7 14.55,21.219 v 15.46 c 0,14.854 -8.184,22.432 -24.251,22.432 H -21.22 c -1.97,0 -3.182,-1.061 -3.182,-3.031 V -50.169 c 0,-1.971 1.212,-3.032 3.182,-3.032 h 1.971 c 1.97,0 3.031,1.061 3.031,3.032 V -7.427 H 0.606 2.273 l 16.522,-43.197 c 0.605,-1.819 1.818,-2.577 3.485,-2.577"
             style="fill:#ffffff;fill-opacity:1;fill-rule:nonzero;stroke:none"
             id="path56"
             inkscape:connector-curvature="0" /></g><g
           id="g58"
           transform="translate(678.6475,393.7963)"><path
             d="m 0,0 c -11.975,0 -16.673,5.002 -16.673,17.582 v 58.203 c 0,12.58 4.698,17.582 16.673,17.582 11.974,0 16.672,-5.002 16.672,-17.582 V 17.582 C 16.672,5.002 11.974,0 0,0 m 24.856,78.513 c 0,14.854 -8.184,22.432 -24.251,22.432 h -1.211 c -16.067,0 -24.251,-7.426 -24.251,-22.432 V 14.854 c 0,-14.854 8.184,-22.432 24.251,-22.432 h 1.211 c 16.067,0 24.251,7.578 24.251,22.432 z"
             style="fill:#ffffff;fill-opacity:1;fill-rule:nonzero;stroke:none"
             id="path60"
             inkscape:connector-curvature="0" /></g><g
           id="g62"
           transform="translate(763.9795,468.3686)"><path
             d="m 0,0 v -11.216 c 0,-12.58 -4.699,-17.582 -16.673,-17.582 h -16.218 v 46.38 h 16.218 C -4.699,17.582 0,12.58 0,0 M -41.075,22.129 V -77.906 c 0,-1.971 1.212,-3.032 3.182,-3.032 h 1.971 c 1.97,0 3.031,1.061 3.031,3.032 v 41.529 h 16.825 c 16.066,0 24.251,7.579 24.251,22.433 V 2.728 C 8.185,17.582 0,25.16 -16.066,25.16 h -21.827 c -1.97,0 -3.182,-1.061 -3.182,-3.031"
             style="fill:#ffffff;fill-opacity:1;fill-rule:nonzero;stroke:none"
             id="path64"
             inkscape:connector-curvature="0" /></g><g
           id="g66"
           transform="translate(788.2295,490.4975)"><path
             d="m 0,0 v -100.035 c 0,-1.971 1.213,-3.032 3.183,-3.032 h 35.77 c 1.971,0 3.183,1.061 3.183,3.032 v 1.363 c 0,1.971 -1.212,3.184 -3.183,3.184 H 8.185 v 42.439 H 33.8 c 1.971,0 3.182,1.212 3.182,3.183 v 1.212 c 0,1.971 -1.211,3.183 -3.182,3.183 H 8.185 v 40.924 h 30.313 c 1.971,0 3.184,1.213 3.184,3.183 V 0 c 0,1.97 -1.213,3.031 -3.184,3.031 H 3.183 C 1.213,3.031 0,1.97 0,0"
             style="fill:#ffffff;fill-opacity:1;fill-rule:nonzero;stroke:none"
             id="path68"
             inkscape:connector-curvature="0" /></g><g
           id="g70"
           transform="translate(479.915,524.225)"><path
             d="M 0,0 9.276,6.564 18.553,0 15.177,10.851 24.285,17.645 12.923,17.787 9.276,28.549 5.63,17.787 -5.733,17.645 3.376,10.851 Z"
             style="fill:#f1ee1c;fill-opacity:1;fill-rule:nonzero;stroke:none"
             id="path72"
             inkscape:connector-curvature="0" /></g><g
           id="g74"
           transform="translate(492.8379,345.9721)"><path
             d="M 0,0 -3.646,10.763 -7.293,0 l -11.363,-0.143 9.109,-6.793 -3.376,-10.851 9.277,6.564 9.276,-6.564 -3.376,10.851 9.108,6.793 z"
             style="fill:#f1ee1c;fill-opacity:1;fill-rule:nonzero;stroke:none"
             id="path76"
             inkscape:connector-curvature="0" /></g><g
           id="g78"
           transform="translate(429.2715,510.767)"><path
             d="M 0,0 9.276,6.564 18.553,0 15.176,10.851 24.286,17.645 12.923,17.787 9.276,28.549 5.63,17.787 -5.733,17.645 3.376,10.851 Z"
             style="fill:#f1ee1c;fill-opacity:1;fill-rule:nonzero;stroke:none"
             id="path80"
             inkscape:connector-curvature="0" /></g><g
           id="g82"
           transform="translate(530.5586,510.767)"><path
             d="M 0,0 9.276,6.564 18.553,0 15.177,10.851 24.285,17.645 12.923,17.787 9.276,28.549 5.63,17.787 -5.733,17.645 3.376,10.851 Z"
             style="fill:#f1ee1c;fill-opacity:1;fill-rule:nonzero;stroke:none"
             id="path84"
             inkscape:connector-curvature="0" /></g><g
           id="g86"
           transform="translate(542.251,357.8237)"><path
             d="M 0,0 -3.646,10.763 -7.293,0 l -11.363,-0.142 9.109,-6.794 -3.376,-10.85 9.277,6.563 9.276,-6.563 -3.377,10.85 9.109,6.794 z"
             style="fill:#f1ee1c;fill-opacity:1;fill-rule:nonzero;stroke:none"
             id="path88"
             inkscape:connector-curvature="0" /></g><g
           id="g90"
           transform="translate(443.4248,357.8237)"><path
             d="M 0,0 -3.646,10.763 -7.293,0 l -11.363,-0.142 9.11,-6.794 -3.377,-10.85 9.277,6.563 9.276,-6.563 -3.377,10.85 9.11,6.794 z"
             style="fill:#f1ee1c;fill-opacity:1;fill-rule:nonzero;stroke:none"
             id="path92"
             inkscape:connector-curvature="0" /></g></g></g><path
       style="fill:#000000;fill-opacity:1;fill-rule:nonzero;stroke:none;stroke-width:1.19209874;stroke-miterlimit:4;stroke-dasharray:none;stroke-opacity:1"
       d="m 396.0433,1130.5252 c -26.29509,-3.3459 -48.26744,-14.2062 -66.1049,-32.6737 -23.10535,-23.9214 -36.62541,-56.6613 -42.75735,-103.54042 -2.35351,-17.99276 -2.67705,-64.565 -0.60039,-86.4244 2.99506,-31.52664 11.44614,-81.04807 18.35443,-107.5529 1.21793,-4.6728 2.08246,-8.62794 1.92118,-8.78924 -0.16129,-0.16128 -9.74493,-3.0919 -21.297,-6.51249 C 151.62081,745.37269 70.167523,687.81783 51.570335,619.69556 49.019653,610.3523 48.148562,588.30559 49.899693,577.41271 59.452699,517.98844 122.83251,461.81004 227.43382,420.05057 c 18.00005,-7.18607 50.80498,-18.56582 65.87099,-22.85009 5.87033,-1.66932 9.39332,-3.25376 9.39332,-4.22459 0,-0.85439 -1.82777,-8.81138 -4.0617,-17.68219 -8.50481,-33.77203 -15.448,-73.74686 -18.83316,-108.43049 -1.70959,-17.51599 -1.68522,-60.25953 0.0432,-75.71591 8.76984,-78.42615 42.20257,-124.308183 99.70622,-136.833639 11.4165,-2.486746 42.04067,-1.823331 56.31269,1.219907 C 535.33477,76.74353 658.52937,177.68794 773.9273,332.53806 l 15.00241,20.13143 5.94975,0.64734 c 3.27237,0.35604 15.94083,1.69599 28.15216,2.97769 47.37367,4.97231 92.46006,12.39109 143.10136,23.54678 2.87318,0.63293 3.1255,-0.0929 8.40203,-24.16844 14.64354,-66.81501 18.96578,-123.74038 12.92439,-170.21849 -6.58258,-50.6416 -26.18657,-85.759662 -55.69289,-99.76676 -13.24618,-6.288159 -20.74119,-7.781495 -38.7119,-7.713113 -22.98879,0.08748 -43.0298,5.012573 -71.16157,17.488017 C 783.67966,112.40879 732.3471,148.9313 690.46026,188.97538 l -10.69937,10.22866 -10.62741,-10.42437 -10.62742,-10.42436 10.24727,-9.66741 C 732.44067,108.60437 797.0513,67.735496 850.35762,53.815729 c 71.26311,-18.608791 126.10033,7.080573 152.18538,71.293631 23.4831,57.80812 22.6332,147.86963 -2.3692,251.05359 -1.51681,6.25977 -2.67042,11.43537 -2.56361,11.50132 0.1068,0.0659 9.94661,2.97179 21.86631,6.45742 54.8068,16.02702 107.0969,38.29189 143.7974,61.22829 40.5279,25.32831 70.4679,56.32268 83.311,86.24456 7.1658,16.69491 8.5087,23.55025 8.522,43.50324 0.011,14.97173 -0.3789,18.99758 -2.5641,26.54685 -6.93,23.94151 -17.7796,41.81535 -38.3953,63.25319 -37.9709,39.4852 -98.9302,72.91886 -183.3241,100.54566 -15.6556,5.12492 -28.6935,9.49703 -28.9732,9.71579 -0.2797,0.21876 1.8849,10.24538 4.8103,22.28139 13.6501,56.16156 19.3767,98.96583 19.303,144.28155 -0.088,54.10279 -9.3059,93.19569 -29.30571,124.28559 -7.05098,10.9608 -25.11592,28.6904 -35.3007,34.6455 -26.69263,15.6071 -55.8334,19.6857 -91.64353,12.8265 -96.69277,-18.521 -222.11779,-120.6414 -337.51044,-274.79955 -7.96872,-10.64577 -14.88362,-20.05009 -15.36644,-20.89847 -0.61568,-1.08184 -7.30526,-2.18059 -22.39895,-3.67902 -46.55015,-4.62124 -82.92044,-9.99861 -123.99378,-18.33255 -15.65554,-3.17657 -29.83956,-6.01837 -31.52004,-6.31512 -2.78621,-0.49199 -3.1732,-0.10281 -4.39222,4.41758 -6.3182,23.42902 -14.57584,69.2763 -17.70878,98.32109 -2.40092,22.25846 -2.74227,69.77637 -0.6216,86.53247 5.11496,40.41497 17.60454,71.61527 36.08347,90.14027 49.3962,49.5194 149.45883,16.0275 259.92225,-86.99845 l 12.90745,-12.03838 10.43354,10.48875 10.43355,10.48878 -9.67797,9.0636 c -61.88017,57.9521 -122.86335,97.5122 -174.42788,113.1525 -21.63609,6.5625 -48.84688,9.6633 -65.83242,7.5019 z m 517.77589,-34.2048 c 40.71631,-5.2889 66.88137,-35.1152 77.63317,-88.4962 6.62468,-32.89053 6.61748,-78.68687 -0.0197,-124.98639 -3.62324,-25.275 -14.57306,-77.59097 -18.62552,-88.98886 -0.33096,-0.93085 -4.25211,-0.36486 -13.35381,1.92751 -38.45966,9.68655 -101.77046,20.68972 -148.20465,25.75739 l -17.87174,1.95047 -15.0419,21.13735 c -17.91176,25.17018 -42.19252,56.51851 -61.62178,79.55845 -16.81156,19.9358 -29.01838,33.66663 -30.37672,34.16925 -0.54243,0.20071 -5.5905,-4.07358 -11.21792,-9.49843 l -10.23169,-9.86338 14.11047,-16.11973 c 27.44793,-31.35638 75.83075,-93.24206 74.18455,-94.88825 -0.38671,-0.38671 -10.83119,-0.0773 -23.20995,0.6876 -33.12017,2.04652 -118.22015,2.83601 -148.82022,1.38064 -14.36484,-0.68321 -26.26064,-1.09943 -26.43513,-0.92496 -0.83372,0.83373 35.15157,46.25215 54.73715,69.08585 112.77624,131.47939 229.98867,207.77309 304.36538,198.11169 z M 698.92578,804.83665 c 24.32326,-1.03766 74.18054,-4.29252 74.68432,-4.87566 0.11399,-0.13195 6.10279,-9.20626 13.30845,-20.16514 16.69492,-25.39082 36.26687,-57.34706 48.63746,-79.41314 l 9.67797,-17.26312 4.55434,-0.0767 c 4.66432,-0.0786 13.31537,-3.39831 16.59837,-6.36938 1.6252,-1.4708 2.48331,-1.30966 7.42127,1.39362 3.07097,1.68118 5.72947,3.15869 5.90776,3.28334 1.15703,0.80889 -40.01495,71.23579 -58.05902,99.31311 -4.98906,7.76317 -8.77151,14.41434 -8.40545,14.7804 1.66709,1.66709 76.78656,-10.13053 110.74247,-17.39226 21.95091,-4.69437 40.11553,-9.15526 41.03856,-10.0783 0.81289,-0.81287 -13.71557,-44.45885 -23.13117,-69.49003 -3.99152,-10.61137 -7.13617,-19.37421 -6.9881,-19.47297 0.14806,-0.0987 2.57484,-1.73146 5.39284,-3.6282 l 5.12363,-3.44863 3.21828,3.27996 c 4.09242,4.17083 8.79442,6.59822 14.75083,7.61506 l 4.7014,0.80259 7.13771,19.90236 c 3.92575,10.94631 9.73685,28.08174 12.91357,38.07873 3.17672,9.99701 5.98841,18.38894 6.24821,18.64874 0.73368,0.73366 45.90132,-14.09775 64.31922,-21.12012 108.5211,-41.37678 171.9264,-98.18686 171.9264,-154.04309 0,-64.3991 -80.8181,-126.13288 -218.4946,-166.89946 -11.5225,-3.41186 -21.07357,-6.06677 -21.22466,-5.89979 -0.15108,0.16697 -1.41314,4.4025 -2.8046,9.41227 -8.54474,30.76454 -23.73645,74.57733 -25.85904,74.57733 -2.83665,0 -12.5992,5.58717 -14.92174,8.5398 -1.40823,1.79027 -2.59082,2.44972 -3.05274,1.70233 -0.41471,-0.67101 -3.49562,-2.76728 -6.84646,-4.65838 l -6.09245,-3.43837 2.90855,-7.61955 c 10.78185,-28.24532 28.37409,-84.25185 26.91099,-85.67364 -2.85195,-2.7714 -75.49904,-15.96878 -114.79578,-20.85427 -36.25711,-4.5076 -38.61366,-4.68722 -37.52389,-2.86012 0.51601,0.86514 6.38637,9.77079 13.04524,19.79034 20.46535,30.79408 58.06691,92.89432 58.06691,95.89945 0,0.54771 -2.31456,2.12032 -5.14348,3.49472 -2.82892,1.37439 -7.43341,4.60968 -10.23222,7.18954 l -5.08876,4.69064 -4.28473,-3.7194 c -2.35661,-2.04568 -5.00236,-5.05078 -5.87946,-6.67802 -2.72723,-5.05967 -26.32154,-44.52693 -33.41982,-55.90282 -3.71209,-5.9491 -15.52462,-23.95633 -26.25005,-40.01606 l -19.50078,-29.19952 -6.29931,-0.65988 c -33.59425,-3.51916 -147.05103,-3.6588 -197.01232,-0.24248 -38.87156,2.65801 -35.2586,1.67916 -41.66616,11.28846 -18.43522,27.64699 -42.32834,66.49576 -59.06068,96.0291 -8.12864,14.34744 -9.60025,16.29116 -14.16918,18.71497 -2.80415,1.4876 -7.52088,5.12715 -10.48162,8.08788 l -5.38316,5.38317 -2.93404,-5.00656 c -1.61371,-2.7536 -4.53963,-6.26311 -6.50201,-7.79891 l -3.56799,-2.79237 11.96972,-21.48561 c 13.8551,-24.86987 32.23575,-55.71475 46.6013,-78.20247 5.52597,-8.65029 10.0472,-16.11481 10.0472,-16.58782 0,-1.61178 -57.54581,6.72268 -90.27904,13.07528 -25.62782,4.97365 -60.26982,12.88928 -61.49587,14.05169 -1.11283,1.05506 12.18367,41.87983 23.01065,70.65052 7.2281,19.20737 7.7693,21.22821 6.16105,23.00531 -1.65143,1.8248 -2.02539,1.73831 -5.90255,-1.36507 -5.66369,-4.53338 -10.77464,-6.46431 -19.58156,-7.39793 l -7.47203,-0.79211 -6.9262,-19.5308 c -3.80941,-10.74195 -9.61444,-27.88139 -12.90007,-38.08766 l -5.97387,-18.55684 -3.53819,0.73542 c -1.94599,0.4045 -14.18885,4.24257 -27.20634,8.52904 -102.4698,33.74187 -171.81601,79.0124 -196.141222,128.04473 -14.837559,29.90807 -12.506421,59.05801 7.078875,88.5185 6.496645,9.77236 23.834067,28.06629 35.619277,37.58442 30.70142,24.79548 79.51269,49.76698 133.12258,68.10454 20.46577,7.00043 49.95388,15.8615 52.78432,15.8615 1.05357,0 3.75545,-7.23026 8.19047,-21.91776 3.64004,-12.05477 9.66703,-30.68795 13.3933,-41.40704 l 6.77505,-19.48929 6.75819,-0.61281 c 3.717,-0.33704 10.8214,-0.33431 15.78754,0.006 l 9.02936,0.61888 -4.03917,10.94382 c -7.59692,20.58332 -25.40848,75.91296 -25.40907,78.9304 -4.1e-4,2.20837 58.27139,13.55784 100.76465,19.62572 14.95858,2.13603 52.14093,6.3652 52.53116,5.97497 0.15145,-0.15145 -5.11058,-8.46146 -11.6934,-18.46669 -22.15028,-33.66581 -58.48583,-93.54218 -58.48583,-96.37683 0,-0.52017 2.94609,-0.95078 6.54686,-0.9569 4.59804,-0.008 8.39085,-0.86947 12.74154,-2.89467 8.65853,-4.03044 10.59052,-2.99283 17.64556,9.4769 14.08119,24.88843 50.32289,81.73247 67.42436,105.75316 l 4.98729,7.00513 13.17797,0.82339 c 44.46711,2.77841 108.17925,3.48332 150.73686,1.66776 z M 357.9219,380.2768 c 36.19031,-8.51111 78.95527,-15.89246 122.96482,-21.22408 13.15066,-1.59317 25.44738,-3.13876 27.32604,-3.43466 2.77447,-0.437 4.69832,-2.39587 10.24727,-10.43382 21.82505,-31.61481 57.19907,-76.8981 83.70488,-107.153 l 16.28176,-18.5847 10.54339,10.49955 10.5434,10.49957 -9.34598,10.36231 c -26.21749,29.06857 -80.83122,98.56733 -78.94149,100.45706 0.35303,0.35303 9.00386,0.0361 19.22409,-0.70434 24.79497,-1.7963 132.88257,-2.74317 158.62821,-1.38961 11.272,0.59261 20.64034,0.95663 20.81855,0.80892 0.47039,-0.38988 -23.76726,-31.709 -37.796,-48.83882 C 673.27295,253.70594 625.50749,204.61267 586.12723,171.64512 514.11063,111.35576 446.71574,79.359849 397.77,82.221997 c -13.86027,0.810492 -22.43907,2.935461 -33.34209,8.258838 -25.53439,12.467105 -42.73212,39.144435 -50.9494,79.033345 -3.99165,19.37656 -5.29209,34.31657 -5.25268,60.34555 0.0642,42.44311 5.51762,82.34149 18.65057,136.45291 l 4.79299,19.74847 3.44709,-0.61585 c 1.8959,-0.33872 12.15834,-2.66453 22.80542,-5.16846 z"
       id="path94"
       inkscape:connector-curvature="0"
       transform="matrix(0.75000002,0,0,-0.75000002,0,882.60805)" /><path
       style="fill:#000000;fill-opacity:1;fill-rule:nonzero;stroke:none;stroke-width:0.84294111;stroke-miterlimit:4;stroke-dasharray:none;stroke-opacity:1"
       d="m 558.69495,659.01406 c -1.90723,-0.82953 -2.78019,-1.90126 -3.41719,-4.19527 -0.56619,-2.03897 -0.85709,-22.07485 -0.86006,-59.23691 l -0.004,-56.15582 -7.84973,-0.0454 c -12.79758,-0.0741 -15.46292,-1.83985 -15.48634,-10.25958 -0.0127,-4.56819 1.52932,-8.50971 3.64716,-9.3224 0.7168,-0.27506 15.05735,-0.50011 31.86788,-0.50011 h 30.56459 l 1.97616,1.97615 c 1.71197,1.71197 1.97616,2.71055 1.97616,7.46933 0,9.05102 -2.41009,10.66943 -15.90075,10.67756 l -7.44719,0.004 v 57.20217 c 0,62.98554 0.16425,60.89607 -4.92628,62.67064 -3.49948,1.21993 -11.02902,1.06826 -14.13992,-0.28481 z"
       id="path96"
       inkscape:connector-curvature="0"
       transform="matrix(0.75000002,0,0,-0.75000002,0,882.60805)" /><path
       style="fill:#000000;fill-opacity:1;fill-rule:nonzero;stroke:none;stroke-width:0.84294111;stroke-miterlimit:4;stroke-dasharray:none;stroke-opacity:1"
       d="m 476.97871,660.90436 c -14.56255,-1.87767 -22.83624,-8.84335 -25.51833,-21.48409 -1.17038,-5.51605 -1.25792,-93.08414 -0.0992,-99.19427 2.98848,-15.75816 15.50995,-23.21684 37.43624,-22.2997 14.41277,0.60286 22.70835,4.15942 27.96784,11.99061 3.83922,5.71645 4.63876,10.02356 4.63876,24.9888 0,13.34182 -0.0343,13.61145 -1.97616,15.55335 -1.8083,1.8083 -2.59783,1.97615 -9.29526,1.97615 -6.69743,0 -7.48695,-0.16785 -9.29526,-1.97615 -1.89454,-1.89455 -1.97803,-2.41824 -2.0216,-12.68035 -0.0258,-6.07184 -0.4613,-11.91158 -1.00638,-13.49416 -1.48415,-4.30909 -5.35228,-6.46869 -11.58629,-6.46869 -6.12089,0 -9.32426,1.43032 -11.30002,5.04551 -1.31077,2.3984 -1.42256,6.05108 -1.42256,46.48097 0,40.46607 0.11086,44.0809 1.42568,46.48702 2.00332,3.66607 4.63432,5.12785 10.01823,5.56614 5.36489,0.43674 9.11108,-1.08442 11.8468,-4.81047 1.49039,-2.02991 1.69246,-3.61137 1.90315,-14.89438 0.12965,-6.94283 0.6136,-13.58856 1.07544,-14.76829 1.21433,-3.10182 4.44153,-4.11332 12.02484,-3.76895 9.97015,0.45277 9.81276,0.10035 9.45956,21.18145 -0.26273,15.68101 -0.42332,17.24769 -2.16632,21.13412 -3.93641,8.77722 -12.21111,13.86892 -25.18198,15.49533 -7.47364,0.93711 -9.24289,0.93085 -16.92722,-0.06 z"
       id="path98"
       inkscape:connector-curvature="0"
       transform="matrix(0.75000002,0,0,-0.75000002,0,882.60805)" /><path
       style="fill:#000000;fill-opacity:1;fill-rule:nonzero;stroke:none;stroke-width:0.84294111;stroke-miterlimit:4;stroke-dasharray:none;stroke-opacity:1"
       d="m 202.80126,659.67172 c -0.98749,-0.21634 -2.52725,-1.32369 -3.42169,-2.46079 -1.60152,-2.03601 -1.62624,-3.06967 -1.62624,-68.01376 v -65.94633 l 1.97616,-1.97616 1.97616,-1.97615 h 19.65169 c 21.20336,0 25.78185,0.51432 32.69418,3.6727 8.31437,3.799 12.8601,10.03021 14.59816,20.01092 1.41837,8.14485 0.60423,37.60414 -1.16996,42.33468 -2.03686,5.4309 -5.12466,9.42067 -9.47015,12.23645 -2.14453,1.38961 -3.89915,2.78588 -3.89915,3.10282 0,0.31694 4.0154,12.42616 8.92311,26.90937 8.03609,23.71542 8.82886,26.56066 7.97498,28.6221 -1.15008,2.77654 -4.27665,4.00369 -10.20072,4.00369 -5.2009,0 -9.43208,-1.61364 -10.76582,-4.10575 -0.90341,-1.68804 -3.12562,-8.48628 -13.19816,-40.3761 l -3.75085,-11.87525 h -6.3984 -6.39839 v 25.71835 25.71835 l -1.86581,2.16913 c -1.67039,1.94194 -2.49257,2.19302 -7.84974,2.39711 -3.29116,0.1254 -6.79187,0.051 -7.77936,-0.16538 z m 38.18718,-77.5427 c 4.77097,-2.90903 5.1967,-4.79705 4.91795,-21.81012 l -0.24953,-15.23003 -2.6298,-2.63013 -2.62981,-2.63013 -10.05054,-0.26694 -10.05054,-0.26693 v 22.20594 22.20595 l 9.05739,-0.003 c 7.56271,-0.002 9.48273,-0.26235 11.63488,-1.5746 z"
       id="path100"
       inkscape:connector-curvature="0"
       transform="matrix(0.75000002,0,0,-0.75000002,0,882.60805)" /><path
       style="fill:#000000;fill-opacity:1;fill-rule:nonzero;stroke:none;stroke-width:0.84294111;stroke-miterlimit:4;stroke-dasharray:none;stroke-opacity:1"
       d="m 292.95043,659.01045 c -1.44366,-0.63958 -2.98189,-2.10664 -3.42168,-3.26338 -1.2119,-3.18754 -1.07994,-130.39115 0.13764,-132.67724 1.96971,-3.69827 2.13337,-3.71878 29.89511,-3.7457 l 26.40366,-0.0256 1.97616,1.97615 c 1.74069,1.74069 1.97616,2.6833 1.97616,7.91068 0,5.3373 -0.20895,6.13093 -2.07631,7.88633 -2.04314,1.92064 -2.35201,1.95614 -19.33658,2.22246 l -17.26029,0.27065 0.21544,19.45434 0.21543,19.45433 14.16718,0.21935 c 14.02866,0.21721 14.18611,0.23949 16.10203,2.27889 1.65367,1.76025 1.93484,2.85967 1.93484,7.56553 0,4.70586 -0.28117,5.80527 -1.93484,7.56552 -1.91592,2.03941 -2.07337,2.06169 -16.10203,2.2789 l -14.16718,0.21935 -0.21487,20.73135 -0.21487,20.73136 h 17.76242 17.76241 l 1.97616,1.97617 c 1.72118,1.72117 1.97616,2.70225 1.97616,7.60356 0,4.7869 -0.29007,5.9648 -1.94206,7.88633 l -1.94205,2.25893 -25.63267,0.19183 c -20.9008,0.15641 -26.11682,-0.0227 -28.25537,-0.97009 z"
       id="path102"
       inkscape:connector-curvature="0"
       transform="matrix(0.75000002,0,0,-0.75000002,0,882.60805)" /><path
       style="fill:#000000;fill-opacity:1;fill-rule:nonzero;stroke:none;stroke-width:0.84294111;stroke-miterlimit:4;stroke-dasharray:none;stroke-opacity:1"
       d="m 364.00675,659.65958 c -2.76358,-0.75459 -4.42806,-2.82552 -4.42806,-5.50939 0,-2.34195 22.79154,-126.97235 23.81032,-130.20133 0.24084,-0.76336 1.37108,-2.12197 2.51164,-3.01913 1.84372,-1.45027 3.24741,-1.6312 12.65489,-1.6312 11.00124,0 13.10407,0.54843 14.8887,3.88304 0.40772,0.76184 6.2273,30.50923 12.93239,66.1053 13.46627,71.48995 13.12632,68.29984 7.47685,70.16433 -1.65343,0.54568 -5.19943,0.77191 -8.45168,0.53922 -8.64634,-0.61864 -9.09407,-1.304 -11.75368,-17.99159 l -2.16897,-13.60908 H 398.2429 385.00665 l -2.18359,13.60436 c -2.68479,16.72702 -3.16236,17.45622 -11.69037,17.85026 -3.03366,0.14018 -6.24033,0.057 -7.12594,-0.18479 z m 44.48263,-51.19608 c -0.20502,-0.55351 -2.50189,-14.68304 -5.10417,-31.39895 -2.60227,-16.71592 -4.91878,-30.39226 -5.1478,-30.39186 -0.22902,3.9e-4 -2.55367,13.67705 -5.16589,30.39257 -2.61222,16.71552 -4.91533,30.84473 -5.11802,31.39824 -0.28304,0.77292 2.09937,1.00637 10.27006,1.00637 8.17294,0 10.5522,-0.23324 10.26582,-1.00637 z"
       id="path104"
       inkscape:connector-curvature="0"
       transform="matrix(0.75000002,0,0,-0.75000002,0,882.60805)" /><path
       style="fill:#000000;fill-opacity:1;fill-rule:nonzero;stroke:none;stroke-width:0.84294111;stroke-miterlimit:4;stroke-dasharray:none;stroke-opacity:1"
       d="m 618.82132,659.62112 c -0.66421,-0.26202 -1.47383,-0.87495 -1.79915,-1.36206 -0.32532,-0.48711 -0.59705,-31.51775 -0.60383,-68.95697 -0.009,-51.88478 0.21741,-68.30105 0.9538,-69.03744 1.38193,-1.38194 51.4327,-1.38194 52.81464,0 1.24798,1.24797 1.24798,5.67589 0,6.92387 -0.70245,0.70245 -6.74496,0.96612 -22.14028,0.96612 h -21.17417 v 27.776 27.77599 h 17.95376 c 12.89057,0 18.22622,0.27246 18.91988,0.96612 1.60581,1.60581 1.2078,6.8989 -0.59115,7.86167 -0.93538,0.5006 -8.49103,0.83343 -18.91988,0.83343 h -17.36261 v 28.58109 28.5811 h 21.70941 c 20.63947,0 21.75048,0.0767 22.54284,1.55728 1.03409,1.93222 1.05513,4.89599 0.0461,6.49373 -0.64792,1.02594 -4.55302,1.23089 -25.95219,1.36206 -13.85423,0.0849 -25.73295,-0.06 -26.39716,-0.32199 z"
       id="path106"
       inkscape:connector-curvature="0"
       transform="matrix(0.75000002,0,0,-0.75000002,0,882.60805)" /><path
       style="fill:#000000;fill-opacity:1;fill-rule:nonzero;stroke:none;stroke-width:0.84294111;stroke-miterlimit:4;stroke-dasharray:none;stroke-opacity:1"
       d="m 715.14189,660.91586 c -8.72376,-1.27402 -16.31671,-6.0703 -19.62804,-12.39857 -3.32065,-6.34608 -3.40882,-8.12225 -3.41876,-68.87642 -0.007,-44.3674 0.22272,-58.64237 0.95657,-59.37622 0.53137,-0.53137 2.51125,-0.96612 4.39973,-0.96612 2.57072,0 3.64305,0.39135 4.26704,1.55727 0.55187,1.03118 0.83494,20.81819 0.83792,58.57112 0.003,35.71033 0.30678,58.10214 0.81351,59.92641 2.19764,7.91163 7.94347,11.85168 18.32076,12.56295 11.49746,0.78805 19.45221,-3.06661 22.43284,-10.87037 1.33521,-3.49577 1.48565,-8.50601 1.87892,-62.57244 l 0.4275,-58.77239 2.72798,-0.2606 c 1.50039,-0.14332 3.58359,-0.0458 4.62933,0.21662 l 1.90135,0.47721 v 59.30806 c 0,65.76713 0.0778,64.69731 -5.23832,72.02155 -5.80803,8.00194 -19.72558,11.72763 -35.30833,9.45194 z"
       id="path108"
       inkscape:connector-curvature="0"
       transform="matrix(0.75000002,0,0,-0.75000002,0,882.60805)" /><path
       style="fill:#000000;fill-opacity:1;fill-rule:nonzero;stroke:none;stroke-width:0.84294111;stroke-miterlimit:4;stroke-dasharray:none;stroke-opacity:1"
       d="m 784.47091,659.32167 c -1.3244,-0.77139 -1.40892,-4.93832 -1.40892,-69.45576 0,-52.30942 0.2298,-68.86494 0.96612,-69.60126 1.54486,-1.54486 37.56291,-1.32334 43.74912,0.26907 9.54937,2.45813 15.95722,8.33595 18.67944,17.13435 2.05007,6.62598 2.06735,36.28656 0.025,42.88004 -2.08037,6.71613 -6.07985,11.42995 -12.29309,14.48872 -2.87968,1.41766 -5.23579,2.84774 -5.23579,3.17795 0,0.33021 4.88738,13.15509 10.86085,28.49974 5.97347,15.34466 11.0826,28.78289 11.35363,29.86276 0.39364,1.56838 0.0837,2.14977 -1.54057,2.88984 -2.16015,0.98422 -7.39825,0.40284 -8.21042,-0.91128 -0.26105,-0.42238 -5.49588,-13.90386 -11.63296,-29.95884 l -11.15834,-29.19089 -12.54832,-0.22172 -12.54833,-0.22172 v 29.00409 c 0,27.93063 -0.0596,29.06369 -1.6102,30.61429 -1.72948,1.72948 -5.16314,2.07096 -7.44719,0.74062 z m 41.0258,-71.19159 c 4.92534,-1.46266 9.31509,-5.91708 10.85992,-11.0199 0.70437,-2.32664 1.0497,-8.49968 1.0497,-18.76424 0,-15.15522 -0.0211,-15.33982 -2.27377,-19.92733 -4.01955,-8.18559 -10.4694,-10.24386 -32.14432,-10.25786 l -9.45994,-0.006 v 30.59385 30.59385 h 13.94315 c 10.07333,0 15.07611,-0.33645 18.02526,-1.21226 z"
       id="path110"
       inkscape:connector-curvature="0"
       transform="matrix(0.75000002,0,0,-0.75000002,0,882.60805)" /><path
       style="fill:#000000;fill-opacity:1;fill-rule:nonzero;stroke:none;stroke-width:0.84294111;stroke-miterlimit:4;stroke-dasharray:none;stroke-opacity:1"
       d="m 896.89301,661.04741 c -11.00213,-1.74633 -18.54434,-6.76068 -22.14141,-14.72046 l -1.92082,-4.25047 V 589.34234 536.6082 l 2.2631,-4.60859 c 4.64179,-9.45259 12.37882,-13.49732 27.02411,-14.12756 20.33398,-0.87505 31.47426,5.74984 34.61915,20.58726 1.21296,5.72267 1.2579,96.65596 0.0506,102.28563 -1.9402,9.04683 -8.75682,16.32416 -17.80866,19.01226 -4.98563,1.48058 -16.60889,2.15957 -22.08603,1.29021 z m 19.40226,-10.85393 c 4.04239,-1.70101 6.53801,-4.01764 8.74417,-8.117 1.71015,-3.1777 1.73613,-3.8492 1.95922,-50.63129 0.25596,-53.67726 0.2318,-53.94286 -5.39402,-59.29512 -3.79139,-3.60702 -8.11598,-4.89762 -16.48931,-4.92096 -9.10741,-0.0254 -13.02241,1.17651 -17.09356,5.24765 -5.6076,5.60761 -5.52977,4.79589 -5.52977,57.67068 v 47.09843 l 2.11071,4.50093 c 3.62191,7.72349 9.79701,10.60346 21.63978,10.09246 3.94386,-0.17016 8.20317,-0.86747 10.05278,-1.64578 z"
       id="path112"
       inkscape:connector-curvature="0"
       transform="matrix(0.75000002,0,0,-0.75000002,0,882.60805)" /><path
       style="fill:#000000;fill-opacity:1;fill-rule:nonzero;stroke:none;stroke-width:0.84294111;stroke-miterlimit:4;stroke-dasharray:none;stroke-opacity:1"
       d="m 966.62509,659.60443 c -0.66421,-0.25285 -1.47383,-0.85826 -1.79915,-1.34537 -0.32533,-0.48711 -0.59705,-31.54585 -0.60383,-69.01941 -0.0106,-58.39752 0.1537,-68.27155 1.14951,-69.098 0.85673,-0.71102 6.618,-0.88862 21.93901,-0.67631 19.52577,0.27058 21.06237,0.40131 25.51187,2.17056 8.933,3.55204 14.0374,10.17362 15.8452,20.55497 0.6024,3.4588 0.8087,11.10469 0.5733,21.24554 -0.3182,13.70926 -0.5995,16.43833 -2.0893,20.27022 -2.4199,6.22446 -5.8383,9.99809 -11.6454,12.85563 -6.6052,3.25029 -12.0283,4.04123 -27.7473,4.04684 l -13.0829,0.005 v 28.53545 28.53544 l -1.78934,1.25331 c -1.80978,1.26761 -4.05476,1.50656 -6.26167,0.66647 z m 42.36781,-70.84649 c 1.8262,-0.96816 4.2406,-2.85387 5.3653,-4.19045 3.7203,-4.42137 4.1959,-7.25679 4.1959,-25.0139 v -16.50457 l -2.4153,-4.83061 c -4.0388,-8.07765 -10.2944,-10.04364 -32.00276,-10.05766 l -9.45994,-0.006 v 31.47304 31.47304 l 15.4982,-0.29124 c 14.0669,-0.26434 15.8049,-0.45381 18.8186,-2.05154 z"
       id="path114"
       inkscape:connector-curvature="0"
       transform="matrix(0.75000002,0,0,-0.75000002,0,882.60805)" /><path
       style="fill:#000000;fill-opacity:1;fill-rule:nonzero;stroke:none;stroke-width:0.84294111;stroke-miterlimit:4;stroke-dasharray:none;stroke-opacity:1"
       d="m 1052.9501,658.93796 -1.7894,-1.25331 v -68.22694 c 0,-51.99193 0.2299,-68.45683 0.9661,-69.19306 1.136,-1.13595 51.0587,-1.39127 52.8267,-0.27018 0.6841,0.4338 0.9689,1.9248 0.8051,4.21446 l -0.2535,3.54316 -21.939,0.21422 -21.9391,0.21421 v 27.74794 27.74794 l 18.2858,0.21639 18.2858,0.21639 1.2379,2.21403 c 1.1139,1.99211 1.1139,2.43595 0,4.42806 l -1.2379,2.21403 -18.2858,0.21639 -18.2858,0.21639 v 28.56598 28.56598 h 21.5768 c 15.7084,0 21.8394,0.26276 22.5428,0.96612 1.6058,1.60581 1.2078,6.8989 -0.5912,7.86167 -0.9753,0.52197 -10.6865,0.83343 -25.9866,0.83343 -20.8075,0 -24.6947,-0.18582 -26.2187,-1.2533 z"
       id="path116"
       inkscape:connector-curvature="0"
       transform="matrix(0.75000002,0,0,-0.75000002,0,882.60805)" /></g></svg>